<svg xmlns="http://www.w3.org/2000/svg" viewBox="0 0 490.9 490.9">
  <defs/>
  <path d="M470 449h-53V286a21 21 0 00-42 0v163h-85V236a21 21 0 00-42 0v213h-86V345a21 21 0 00-42 0v104H42V34a21 21 0 00-42 0v436c0 11 9 20 21 20h448c12 0 22-9 22-20s-9-21-21-21z"/>
  <path d="M141 296c35 0 63-30 64-64 0-14-4-27-12-37l57-70a64 64 0 0042-2l45 43a64 64 0 0060 86 64 64 0 10-33-118l-40-38c5-9 8-20 8-32a63 63 0 10-116 36l-57 71c-6-2-11-3-17-3a64 64 0 00-1 127zm255-130c13 0 22 10 23 23 0 13-11 23-23 23s-23-10-23-23 11-23 23-23zM269 41c11 0 23 11 23 23s-11 23-23 23-23-10-23-23 10-23 23-23zM141 209c12 0 23 10 23 23s-11 23-23 23-23-11-23-23c0-13 10-23 23-23z"/>
</svg>
