<svg version="1" xmlns="http://www.w3.org/2000/svg" width="933.333" height="933.333" viewBox="0 0 700.000000 700.000000"><path d="M374 4.7c-1.9.2-7.3 1.3-12 2.4-24.9 6.1-46.1 22.8-58.2 45.9-12.9 24.8-13.1 55.7-.4 81.1l4.3 8.7-3.4 4.3c-1.8 2.4-4.1 5.3-5 6.4-1.7 1.9-64.5 80.2-69.6 86.7l-2.8 3.5-7.7-1.9c-10.4-2.5-19.1-2.5-28.5.1-22.1 6-39.9 18.3-52.2 36-21.3 30.6-21.9 72.1-1.4 102.5 13.4 19.8 31.2 32.3 55.4 38.7 11.9 3.1 13.3 3.2 23.3 1.5 38.9-6.7 70-39.7 75.7-80.2.7-5 .7-19-.1-22.9-2.6-14.1-5.5-22.6-10.6-31.1-2.3-3.8-4.5-7.2-5-7.5-.7-.5 8.3-12.1 26.7-34.4 1.8-2.2 11.7-14.4 22-27 10.3-12.7 19.7-24.1 20.9-25.5 1.2-1.4 4.1-5 6.5-8.1 4.3-5.5 4.4-5.6 8-4.7 13.4 3.3 33 3.2 45.1-.2 4.1-1.2 8.5-2.4 9.8-2.7 1.8-.4 4 1.2 11.5 8.4 5 5 13.7 13.2 19.1 18.4 5.4 5.2 15.5 14.8 22.4 21.5l12.5 12-2.4 8.5c-2 7.1-2.3 10.6-2.3 22.9 0 15.1 1.1 21.4 5.6 33 2.9 7.3 8.1 16.8 11.8 21.4 3.7 4.7 8.7 10.2 11 12.2 1.4 1.2 3.9 3.4 5.5 4.9 9.5 8.4 30.9 17.5 44.9 19.1 4.4.5 22.7.5 25.1.1 1.1-.3 4-.8 6.4-1.2 7-1.2 17.7-5.1 25.9-9.5 34.9-18.9 53.5-59.3 45.3-98.5-9-43.1-46.8-73.2-91-72.4-14.7.3-31.3 4.7-42.8 11.4l-4.4 2.6-7.7-7.4c-7.8-7.6-9.2-8.9-34.5-32.9L462.2 137l3.4-7.9c4.7-10.8 7.5-24.4 7.5-36.1 0-5.2-.3-10.6-.5-12-.3-1.4-.8-3.9-1.2-5.5-3.1-16-12-32.3-24.3-44.5-9.3-9.2-14.7-13-25.4-18-14.2-6.6-32.4-9.8-47.7-8.3zM394.5 61c12.7 5.6 21.3 17.7 22 31 .2 5.9-4.6 16.2-10.3 21.9-7.1 7-13 9.5-22.7 9.6-6.7 0-8.9-.4-13.6-2.7-20.1-9.9-25.2-35.9-10.2-51.9 9.1-9.8 23.2-13 34.8-7.9zM578 239.7c6.4 2.9 10.6 6.8 14.2 13.2 6.2 10.7 6.5 22.3 1 32.5-5 9.1-17.5 16.6-27.9 16.8-22.7.3-39.4-23.3-31.1-43.9 3.9-9.7 9.1-15 18.6-19 7.1-3 18.1-2.8 25.2.4zM215.9 302c6.9 3.7 11.8 8.8 15.2 15.9 3.3 6.9 3.2 18.7-.3 26.1-10 21.3-36 25.9-52.6 9.3-17.3-17.3-10.2-46.5 13-53.7 2.4-.8 7.5-1.3 11.4-1.1 5.8.2 8.2.8 13.3 3.5z"/><path d="M23.4 19.5C13.3 21.8 4.9 29.4 1.6 39.3.1 43.7 0 72.4 0 359.4c0 353.3-.7 320.2 7.6 329.5 2.6 2.9 6.5 5.8 9.6 7.2l5.3 2.4h327l327-.1 5.5-2.5c6.8-3.2 12.1-8 15.1-13.9 3.6-6.9 3.4-17.5-.5-25.2-3.3-6.6-6.7-9.9-13.9-13.6l-5.2-2.7-40.8-.1c-22.5-.1-41.1-.5-41.5-.8-.3-.4-.6-54.3-.7-119.9l-.1-119.2-2.8-5.4c-5.9-11.5-16.5-17.7-28.6-16.8-12.7.8-21.7 7.5-26.4 19.7-1.6 4.1-1.8 12.6-1.8 122.7 0 78.1-.4 118.5-1 118.9-1.4.9-118.7.8-119.6 0-.4-.4-.7-69.9-.8-154.4 0-122-.3-154.5-1.3-157.7-1.8-5.6-7.3-13-11.9-15.8-17-10.8-38.3-3.5-44.8 15.3-1.8 5.4-1.9 10.5-1.8 159.3 0 138.4-.1 153.7-1.5 153.8H233.8l-2.8-.1-.2-77.8c-.3-76.6-.3-77.8-2.4-82.3-3.1-6.6-7.8-11.5-14.2-14.6-15-7.3-33.4-.8-40.4 14.4l-2.3 4.8-.5 77.9-.5 77.9h-54.8c-30.1 0-55-.2-55.2-.5-.3-.2-.6-135.2-.7-299.9l-.3-299.4-2.7-5.2c-6.7-12.6-19.9-18.8-33.4-15.8z"/></svg>